<?xml version="1.0" encoding="UTF-8"?>
<svg id="Layer_1" xmlns="http://www.w3.org/2000/svg" viewBox="0 0 319.76 255.32">
  <defs>
    <style>
      .cls-1 {
        fill: #233205;
      }
    </style>
  </defs>
  <g>
    <path class="cls-1" d="M22.63,209.99v-30.94h6.15v11.06h2.92v-11.06h6.15v30.94h-6.15v-14.03h-2.92v14.03h-6.15Z"/>
    <path class="cls-1" d="M48.48,210.28c-2.47,0-4.36-.75-5.67-2.24s-1.96-3.65-1.96-6.48v-14.7c0-2.65.65-4.66,1.94-6.03s3.19-2.06,5.69-2.06,4.39.69,5.69,2.06,1.94,3.38,1.94,6.03v14.7c0,2.82-.65,4.98-1.96,6.48s-3.2,2.24-5.67,2.24ZM48.53,204.58c.94,0,1.41-.91,1.41-2.72v-15.1c0-1.52-.46-2.29-1.37-2.29-1.03,0-1.55.78-1.55,2.34v15.08c0,.96.12,1.65.35,2.07s.62.62,1.16.62Z"/>
    <path class="cls-1" d="M59.11,209.99v-30.94h9.49c1.58,0,2.78.36,3.59,1.08s1.35,1.73,1.63,3.02.41,2.82.41,4.56-.21,3.04-.64,4.04-1.23,1.71-2.42,2.09c.97.2,1.66.68,2.05,1.45s.59,1.76.59,2.98v11.71h-6.1v-12.11c0-.9-.18-1.46-.55-1.68s-.96-.33-1.78-.33v14.12h-6.26ZM65.4,190.52h1.49c.86,0,1.28-.93,1.28-2.79,0-1.21-.09-2-.28-2.37s-.54-.56-1.05-.56h-1.44v5.73Z"/>
    <path class="cls-1" d="M76.49,209.99v-30.94h5.98v30.94h-5.98Z"/>
    <path class="cls-1" d="M84.62,209.99v-5.62l7.08-19.62h-6.4v-5.7h12.92v5.41l-7.21,19.83h6.91v5.7h-13.31Z"/>
    <path class="cls-1" d="M108.08,210.28c-2.47,0-4.36-.75-5.67-2.24s-1.96-3.65-1.96-6.48v-14.7c0-2.65.65-4.66,1.94-6.03s3.19-2.06,5.69-2.06,4.39.69,5.69,2.06,1.94,3.38,1.94,6.03v14.7c0,2.82-.65,4.98-1.96,6.48s-3.2,2.24-5.67,2.24ZM108.13,204.58c.94,0,1.41-.91,1.41-2.72v-15.1c0-1.52-.46-2.29-1.37-2.29-1.03,0-1.55.78-1.55,2.34v15.08c0,.96.12,1.65.35,2.07s.62.62,1.16.62Z"/>
    <path class="cls-1" d="M118.71,209.99v-30.94h6.36l2.85,14.82v-14.82h5.98v30.94h-6.05l-3.09-15.47v15.47h-6.05Z"/>
    <path class="cls-1" d="M153.29,210.28c-2.24,0-4.04-.7-5.41-2.09s-2.05-3.35-2.05-5.85v-14.27c0-3,.59-5.3,1.78-6.89s3.13-2.39,5.81-2.39c1.46,0,2.77.27,3.91.81s2.04,1.34,2.7,2.42.98,2.42.98,4.05v5.34h-6.15v-4.57c0-.93-.12-1.55-.35-1.87s-.6-.48-1.09-.48c-.57,0-.96.21-1.16.62s-.3.97-.3,1.66v15.49c0,.86.13,1.46.38,1.81s.61.53,1.08.53c.53,0,.9-.22,1.12-.65s.33-1,.33-1.69v-5.57h6.22v5.85c0,2.72-.69,4.69-2.06,5.92s-3.29,1.84-5.75,1.84Z"/>
    <path class="cls-1" d="M171.04,210.28c-2.47,0-4.36-.75-5.67-2.24s-1.96-3.65-1.96-6.48v-14.7c0-2.65.65-4.66,1.94-6.03s3.19-2.06,5.69-2.06,4.39.69,5.69,2.06,1.94,3.38,1.94,6.03v14.7c0,2.82-.65,4.98-1.96,6.48s-3.2,2.24-5.67,2.24ZM171.09,204.58c.94,0,1.41-.91,1.41-2.72v-15.1c0-1.52-.46-2.29-1.37-2.29-1.03,0-1.55.78-1.55,2.34v15.08c0,.96.12,1.65.35,2.07s.62.62,1.16.62Z"/>
    <path class="cls-1" d="M181.67,209.99v-30.94h9.42l2.6,18.86,2.58-18.86h9.51v30.94h-5.66v-22.29l-3.55,22.29h-5.55l-3.76-22.29v22.29h-5.59Z"/>
    <path class="cls-1" d="M209.03,209.99v-30.94h8.17c1.71,0,3.07.38,4.07,1.14s1.72,1.85,2.15,3.25.65,3.08.65,5.03-.18,3.51-.54,4.9-1.01,2.46-1.94,3.23-2.25,1.14-3.96,1.14h-2.51v12.25h-6.08ZM215.11,192.19h.35c1.15,0,1.85-.32,2.11-.97s.39-1.59.39-2.85c0-1.17-.13-2.08-.38-2.72s-.85-.96-1.78-.96h-.69v7.49Z"/>
    <path class="cls-1" d="M233.92,210.28c-2.47,0-4.36-.75-5.67-2.24s-1.96-3.65-1.96-6.48v-14.7c0-2.65.65-4.66,1.94-6.03s3.19-2.06,5.69-2.06,4.39.69,5.69,2.06,1.94,3.38,1.94,6.03v14.7c0,2.82-.65,4.98-1.96,6.48s-3.2,2.24-5.67,2.24ZM233.97,204.58c.94,0,1.41-.91,1.41-2.72v-15.1c0-1.52-.46-2.29-1.37-2.29-1.03,0-1.55.78-1.55,2.34v15.08c0,.96.12,1.65.35,2.07s.62.62,1.16.62Z"/>
    <path class="cls-1" d="M251.89,210.28c-2.82,0-4.86-.7-6.11-2.11s-1.87-3.64-1.87-6.71v-3.02h6.12v3.87c0,.71.11,1.27.33,1.68s.59.61,1.13.61.95-.16,1.17-.49.33-.87.33-1.62c0-.95-.09-1.74-.28-2.38s-.51-1.25-.98-1.83-1.1-1.26-1.92-2.03l-2.78-2.64c-2.07-1.96-3.11-4.2-3.11-6.71s.61-4.65,1.84-6.03,3-2.07,5.32-2.07c2.84,0,4.85.76,6.04,2.27s1.78,3.81,1.78,6.89h-6.29v-2.13c0-.42-.12-.75-.36-.98s-.57-.35-.98-.35c-.49,0-.85.14-1.08.41s-.34.63-.34,1.06.12.9.35,1.41.7,1.08,1.39,1.74l3.57,3.43c.71.68,1.37,1.4,1.97,2.15s1.08,1.63,1.44,2.64.54,2.22.54,3.67c0,2.91-.54,5.18-1.61,6.83s-2.94,2.47-5.6,2.47Z"/>
    <path class="cls-1" d="M261.38,209.99v-30.94h5.98v30.94h-5.98Z"/>
    <path class="cls-1" d="M272.97,209.99v-25h-3.67v-5.94h13.54v5.94h-3.67v25h-6.19Z"/>
    <path class="cls-1" d="M285.06,209.99v-30.94h12.38v5.98h-6.08v6.03h5.84v5.82h-5.84v7.08h6.49v6.03h-12.78Z"/>
  </g>
  <g>
    <g>
      <path class="cls-1" d="M22.61,220.78h1.53v7.37h4.05v1.29h-5.59v-8.65Z"/>
      <path class="cls-1" d="M33.71,220.78l3.18,8.65h-1.64l-.68-1.98h-3.52l-.67,1.98h-1.64l3.18-8.65h1.8ZM31.49,226.17h2.64l-1.32-3.89-1.32,3.89Z"/>
      <path class="cls-1" d="M48.53,228.14l1.16,1.25-1.01.94-1.17-1.26c-.57.33-1.25.52-2.03.52-2.51,0-3.98-1.95-3.98-4.47s1.47-4.47,3.98-4.47,3.98,1.95,3.98,4.47c0,1.19-.33,2.24-.93,3.03ZM45.47,221.94c-1.48,0-2.42,1.22-2.42,3.16s.94,3.16,2.42,3.16c.4,0,.75-.09,1.06-.25l-1.19-1.3,1.01-.94,1.12,1.22c.26-.51.41-1.15.41-1.9,0-1.94-.94-3.16-2.42-3.16Z"/>
      <path class="cls-1" d="M51,226v-5.22h1.53v5.22c0,1.45.62,2.27,2.04,2.27s2.04-.83,2.04-2.27v-5.22h1.53v5.22c0,2.38-1.46,3.58-3.57,3.58s-3.57-1.2-3.57-3.58Z"/>
      <path class="cls-1" d="M64.07,220.78l3.18,8.65h-1.64l-.68-1.98h-3.52l-.67,1.98h-1.64l3.18-8.65h1.8ZM61.84,226.17h2.64l-1.32-3.89-1.32,3.89Z"/>
      <path class="cls-1" d="M68.49,220.78h1.53v7.37h4.05v1.29h-5.59v-8.65Z"/>
      <path class="cls-1" d="M76.93,220.78v8.65h-1.53v-8.65h1.53Z"/>
      <path class="cls-1" d="M80.83,222.07h-2.6v-1.29h6.72v1.29h-2.59v7.37h-1.53v-7.37Z"/>
      <path class="cls-1" d="M86.21,220.78h5.59v1.29h-4.05v2.27h3.62v1.29h-3.62v2.52h4.17v1.29h-5.7v-8.65Z"/>
      <path class="cls-1" d="M97.19,229.43v-8.65h2.99c2.6,0,4.15,1.71,4.15,4.33s-1.56,4.33-4.15,4.33h-2.99ZM98.72,228.15h1.36c1.67,0,2.69-1.06,2.69-3.04s-1.03-3.04-2.69-3.04h-1.36v6.08Z"/>
      <path class="cls-1" d="M105.88,220.78h5.59v1.29h-4.05v2.27h3.62v1.29h-3.62v2.52h4.17v1.29h-5.7v-8.65Z"/>
      <path class="cls-1" d="M116.86,220.78h1.53v7.37h4.05v1.29h-5.59v-8.65Z"/>
      <path class="cls-1" d="M127.47,220.78h1.53v3.44h3.91v-3.44h1.53v8.65h-1.53v-3.93h-3.91v3.93h-1.53v-8.65Z"/>
      <path class="cls-1" d="M139.97,229.58c-2.51,0-3.98-1.95-3.98-4.47s1.47-4.47,3.98-4.47,3.98,1.95,3.98,4.47-1.47,4.47-3.98,4.47ZM139.97,221.94c-1.48,0-2.42,1.22-2.42,3.16s.94,3.16,2.42,3.16,2.42-1.22,2.42-3.16-.94-3.16-2.42-3.16Z"/>
      <path class="cls-1" d="M150.02,225.79l2.32,3.65h-1.68l-2.11-3.45h-1.52v3.45h-1.53v-8.65h3.02c2.09,0,3.3.87,3.3,2.61,0,1.22-.64,2.06-1.79,2.4ZM148.52,222.07h-1.5v2.63h1.5c1.2,0,1.73-.4,1.73-1.31s-.53-1.32-1.73-1.32Z"/>
      <path class="cls-1" d="M155.19,220.78v8.65h-1.53v-8.65h1.53Z"/>
      <path class="cls-1" d="M161.06,222.08h-4.18v-1.3h6.03v1.22l-4.41,6.13h4.54v1.3h-6.39v-1.22l4.41-6.13Z"/>
      <path class="cls-1" d="M167.87,229.58c-2.51,0-3.98-1.95-3.98-4.47s1.47-4.47,3.98-4.47,3.98,1.95,3.98,4.47-1.47,4.47-3.98,4.47ZM167.87,221.94c-1.48,0-2.42,1.22-2.42,3.16s.94,3.16,2.42,3.16,2.42-1.22,2.42-3.16-.94-3.16-2.42-3.16Z"/>
      <path class="cls-1" d="M173.4,220.78h1.48l3.98,6.11v-6.11h1.53v8.65h-1.48l-3.98-6.11v6.11h-1.53v-8.65Z"/>
      <path class="cls-1" d="M184.24,222.07h-2.6v-1.29h6.72v1.29h-2.59v7.37h-1.53v-7.37Z"/>
      <path class="cls-1" d="M193.27,220.78l3.18,8.65h-1.64l-.68-1.98h-3.52l-.67,1.98h-1.64l3.18-8.65h1.8ZM191.04,226.17h2.64l-1.32-3.89-1.32,3.89Z"/>
      <path class="cls-1" d="M197.7,220.78h1.53v7.37h4.05v1.29h-5.59v-8.65Z"/>
      <path class="cls-1" d="M212.57,220.78l3.18,8.65h-1.64l-.68-1.98h-3.52l-.67,1.98h-1.64l3.18-8.65h1.8ZM210.34,226.17h2.64l-1.32-3.89-1.32,3.89Z"/>
      <path class="cls-1" d="M220.77,220.78h1.53v7.37h4.05v1.29h-5.59v-8.65Z"/>
      <path class="cls-1" d="M231.87,220.78l3.18,8.65h-1.64l-.68-1.98h-3.52l-.67,1.98h-1.64l3.18-8.65h1.8ZM229.64,226.17h2.64l-1.32-3.89-1.32,3.89Z"/>
      <path class="cls-1" d="M243.43,227.69l2.43-6.91h1.64l-3.18,8.65h-1.8l-3.18-8.65h1.64l2.43,6.91Z"/>
      <path class="cls-1" d="M248.76,220.78h5.59v1.29h-4.05v2.27h3.62v1.29h-3.62v2.52h4.17v1.29h-5.7v-8.65Z"/>
      <path class="cls-1" d="M260.49,225.79l2.32,3.65h-1.68l-2.11-3.45h-1.52v3.45h-1.53v-8.65h3.02c2.09,0,3.3.87,3.3,2.61,0,1.22-.64,2.06-1.79,2.4ZM258.99,222.07h-1.5v2.63h1.5c1.2,0,1.73-.4,1.73-1.31s-.53-1.32-1.73-1.32Z"/>
      <path class="cls-1" d="M265.94,222.07h-2.6v-1.29h6.72v1.29h-2.59v7.37h-1.53v-7.37Z"/>
      <path class="cls-1" d="M272.92,220.78v8.65h-1.53v-8.65h1.53Z"/>
      <path class="cls-1" d="M278.64,220.63c1.61,0,2.85.74,3.52,1.88l-1.26.68c-.56-.84-1.26-1.25-2.2-1.25-1.48,0-2.62,1.1-2.62,3.16s1.14,3.16,2.62,3.16c.94,0,1.64-.41,2.2-1.25l1.26.68c-.67,1.14-1.92,1.88-3.52,1.88-2.48,0-4.12-1.8-4.12-4.47s1.63-4.47,4.12-4.47Z"/>
      <path class="cls-1" d="M287.85,220.78l3.18,8.65h-1.64l-.68-1.98h-3.52l-.67,1.98h-1.64l3.18-8.65h1.8ZM285.63,226.17h2.64l-1.32-3.89-1.32,3.89Z"/>
      <path class="cls-1" d="M292.28,220.78h1.53v7.37h4.05v1.29h-5.59v-8.65Z"/>
    </g>
    <g>
      <polygon class="cls-1" points="88.11 219.04 89.37 217.44 91.37 217.44 88.48 219.68 88.11 219.04"/>
      <polygon class="cls-1" points="125.05 221.4 124.58 219.42 125.83 217.85 125.79 221.51 125.05 221.4"/>
      <polygon class="cls-1" points="212.05 219.21 211.12 217.4 209.15 217.02 211.57 219.77 212.05 219.21"/>
    </g>
  </g>
  <g>
    <g>
      <path class="cls-1" d="M179.17,146.79h20.65v-31.56h14.67v43.96h-50.72V41.17c17.33,8.66,34.22,17.09,51.07,25.51v34.34h-14.16v-25.9c-7.27-3.71-13.99-7.14-21.51-10.97v82.64Z"/>
      <path class="cls-1" d="M141.08,115.24h-21.74v44.45h-14.41v-93c4.01-2.05,8.54-4.37,14.2-7.26v41.49h21.36v-51.93c5.12-2.66,9.66-5.01,15.22-7.9v118.45h-14.62v-44.3Z"/>
      <path class="cls-1" d="M185.87,76.18c2.91,1.45,5.04,2.5,7.36,3.66v61.38c-2.02.03-4.66.06-7.36,0v-65.04Z"/>
      <path class="cls-1" d="M133.9,52.44c0,15.06-.14,28.9-.14,43.04-2.55.05-4.58.05-7.39,0,0-13.52,0-26.36,0-39.69,2.26-1.01,4.6-2.05,7.52-3.35Z"/>
      <path class="cls-1" d="M126.62,121.27h7.04c0,12.7.03,25.35.03,38.5h-7.07c0-13.34,0-25.42,0-38.5Z"/>
    </g>
    <polygon class="cls-1" points="214.84 50.85 214.84 59.86 160.04 31.6 104.93 60.34 104.93 51.32 160.02 22.59 214.84 50.85"/>
  </g>
</svg>